<?xml version="1.0" encoding="utf-8"?>
<!-- Generator: Adobe Illustrator 17.1.0, SVG Export Plug-In . SVG Version: 6.00 Build 0)  -->
<!DOCTYPE svg PUBLIC "-//W3C//DTD SVG 1.1//EN" "http://www.w3.org/Graphics/SVG/1.1/DTD/svg11.dtd">
<svg version="1.1" id="レイヤー_1" xmlns="http://www.w3.org/2000/svg" xmlns:xlink="http://www.w3.org/1999/xlink" x="0px"
	 y="0px" viewBox="0 0 340 340" enable-background="new 0 0 340 340" xml:space="preserve">
<path fill="#FFFFFF" d="M203,255.1h-31.1c-13.9,0-27.6-10.3-31.8-23.9l-0.1-0.3l-17.3-60.5h-18c-1.8,0-3.7,1.5-4.3,3.3l-17.8,57.5
	c-4.2,13.6-17.9,23.9-31.8,23.9l-20.4,0c-1.8,0-2.8-1.5-2.2-3.3l6.7-21.5c0.6-1.7,2.4-3.1,4.2-3.1h0l11.8,0c1.5,0,4.5-2.1,5.2-4.3
	L80,145.8h0c0.6-1.8,2.5-3.3,4.3-3.3h62.8c9.6,0,20.6-6.7,23.7-16.5c1-3.3,0.8-6.1-0.3-8c-1.2-2-2.8-4.1-7.3-4.1H0V86.1h164.6
	c11.7,0,22,4.9,28.3,13.5c6.6,8.9,8.2,20.9,4.5,32.8c-6.1,19.8-25.6,35.6-45.7,37.8l15.1,52.9c0.7,2.2,3.7,4.2,5.1,4.2h5.1
	c1.6,4.5,3.7,8.8,6.6,12.6C188.7,246.7,195.3,251.8,203,255.1z M340,226.2v27.9H224.4c-15.5,0-28.6-6.2-36.9-17.4
	c-8.5-11.5-10.6-27.2-5.8-43c9-29.3,39.2-52.2,68.7-52.2c15.5,0,28.6,6.2,36.9,17.4c8.5,11.5,10.6,27.2,5.8,43l-2,6.6
	c-0.6,1.8-2.5,3.3-4.3,3.3h0h-81.6c0.2,3.2,2.1,6.1,3.8,8.4c3.7,5,10.3,6.1,16.6,6.1h56.6H340z M217.6,183.8h50.2
	c-0.2-3.2-1.2-6.1-2.9-8.4c-3.7-5-11.8-6.1-16.4-6.1C237.7,169.4,226.1,175.2,217.6,183.8z"/>
</svg>
